{"glyphs":{":":{"x_min":0,"x_max":324,"ha":324,"o":"m 149 377 q 130 377 119 388 q 107 398 107 416 q 107 439 121 454 q 136 468 160 468 q 178 468 191 456 q 203 445 203 428 q 203 406 188 391 q 173 377 149 377 z m 76 -14 q 57 -14 46 -3 q 34 8 34 25 q 34 48 48 62 q 62 76 87 76 q 105 76 118 65 q 130 54 130 37 q 130 15 115 0 q 100 -14 76 -14 z"},"$":{"x_min":0,"x_max":648,"ha":648,"o":"m 51 77 l 90 183 l 99 183 q 104 122 156 82 q 208 41 282 41 q 364 41 418 81 q 472 120 472 180 q 472 250 319 276 q 307 278 301 279 q 214 294 176 324 q 138 354 138 408 q 138 483 197 535 q 256 587 354 597 l 367 685 l 401 685 l 389 599 q 443 596 488 583 q 532 571 569 549 l 528 463 l 519 463 q 506 516 465 546 q 424 576 364 576 q 294 576 250 540 q 206 504 206 447 q 206 375 345 353 q 357 351 363 350 q 470 333 507 303 q 544 274 544 215 q 544 139 481 87 q 417 35 308 22 l 294 -74 l 260 -74 l 273 21 q 206 23 150 37 q 95 51 51 77 z"},"?":{"x_min":0,"x_max":491,"ha":491,"o":"m 164 -19 q 146 -19 134 -8 q 122 2 122 20 q 122 43 136 58 q 151 72 175 72 q 193 72 206 60 q 218 49 218 32 q 218 10 203 -5 q 188 -19 164 -19 z m 195 126 l 177 126 q 180 167 199 207 q 219 247 273 312 q 339 394 362 439 q 384 485 384 528 q 384 582 353 614 q 321 646 268 646 q 208 646 158 610 q 107 575 78 512 l 70 510 l 62 613 q 117 640 168 653 q 219 667 265 667 q 360 667 420 621 q 479 575 479 501 q 479 415 311 286 q 296 275 288 269 q 253 242 229 206 q 206 169 195 126 z"},"<":{"x_min":0,"x_max":833,"ha":833,"o":"m 704 559 l 704 497 l 216 298 l 704 100 l 704 37 l 129 273 l 129 323 z"},"'":{"x_min":0,"x_max":170,"ha":170,"o":"m 93 422 l 77 422 l 45 645 q 44 649 44 653 q 44 657 44 664 q 44 688 54 701 q 65 714 85 714 q 105 714 116 701 q 127 688 127 665 q 127 661 125 648 q 125 646 125 645 z"},"=":{"x_min":0,"x_max":833,"ha":833,"o":"m 124 233 l 709 233 l 709 176 l 124 176 z m 124 420 l 709 420 l 709 363 l 124 363 z"},"a":{"x_min":0,"x_max":625,"ha":625,"o":"m 503 476 q 479 496 447 506 q 416 516 375 516 q 262 516 186 420 q 110 325 110 179 q 110 99 143 52 q 177 6 234 6 q 326 6 395 127 q 464 248 503 476 z m 590 497 q 555 377 536 268 q 516 158 516 91 q 516 59 525 39 q 533 19 552 7 l 550 -2 q 540 -1 528 0 q 516 0 490 0 l 462 0 l 448 0 q 443 21 440 45 q 438 68 438 96 q 438 117 438 128 q 439 139 440 148 q 392 66 337 26 q 282 -15 220 -15 q 133 -15 77 46 q 20 106 20 199 q 20 272 56 341 q 91 409 156 461 q 202 498 259 516 q 317 535 384 535 q 436 535 487 525 q 539 516 590 497 z"},"L":{"x_min":0,"x_max":653,"ha":653,"o":"m -20 -4 l -17 5 q 43 30 67 185 q 70 201 71 209 l 117 502 q 122 535 124 552 q 126 570 126 583 q 126 610 117 623 q 108 636 86 643 l 88 651 q 97 651 115 650 q 160 649 175 649 q 191 649 241 650 q 261 651 271 651 l 268 640 q 222 631 204 514 q 202 501 201 494 l 156 207 q 150 170 146 138 q 143 106 143 93 q 143 52 167 38 q 191 23 282 23 q 396 23 476 52 q 556 81 617 143 l 626 141 l 559 0 l 138 0 q 82 0 47 -1 q 13 -2 -20 -4 z"},"3":{"x_min":0,"x_max":648,"ha":648,"o":"m -10 57 l 36 157 l 46 157 q 65 83 116 44 q 167 5 244 5 q 334 5 393 55 q 451 105 451 181 q 451 244 412 282 q 373 321 308 321 q 294 321 275 319 q 255 318 222 314 l 229 351 q 250 348 269 346 q 288 344 305 344 q 382 344 432 385 q 481 425 481 487 q 481 542 442 575 q 403 609 339 609 q 274 609 220 572 q 166 535 139 473 l 131 473 l 123 576 q 177 603 231 616 q 284 630 335 630 q 442 630 509 589 q 576 548 576 484 q 576 428 522 386 q 469 345 378 331 q 462 314 508 273 q 554 231 554 173 q 554 91 469 37 q 383 -16 247 -16 q 175 -16 109 3 q 42 22 -10 57 z"},";":{"x_min":0,"x_max":324,"ha":324,"o":"m 42 -126 l 30 -119 q 59 -91 75 -65 q 90 -39 94 -12 l 90 -12 q 62 -12 50 -2 q 37 7 37 28 q 37 50 53 66 q 70 83 91 83 q 112 83 125 68 q 138 53 138 28 q 138 -8 113 -48 q 88 -88 42 -126 z m 149 377 q 130 377 119 388 q 107 398 107 416 q 107 439 121 454 q 136 468 160 468 q 178 468 191 456 q 203 445 203 428 q 203 406 188 391 q 173 377 149 377 z"},"J":{"x_min":0,"x_max":412,"ha":412,"o":"m -55 4 l -8 101 l 1 97 q 8 59 33 36 q 57 13 90 13 q 144 13 176 68 q 209 122 229 247 l 270 502 q 275 537 277 553 q 279 570 279 583 q 279 610 270 623 q 261 636 238 643 l 241 651 q 250 651 268 650 q 313 649 328 649 q 344 649 394 650 q 414 651 424 651 l 420 640 q 374 631 356 514 q 354 500 353 494 l 317 263 q 303 176 281 134 q 259 92 217 55 q 173 17 129 -1 q 84 -19 31 -19 q 7 -19 -13 -13 q -34 -8 -55 4 z"},"V":{"x_min":0,"x_max":690,"ha":690,"o":"m 280 -19 q 271 18 256 65 q 241 112 218 176 l 91 528 q 72 581 52 605 q 33 629 1 643 l 3 651 q 33 649 61 648 q 90 647 117 647 q 141 647 165 648 q 190 649 215 651 l 212 643 q 186 629 176 616 q 165 602 165 583 q 165 572 167 561 q 168 549 172 539 l 333 94 l 491 345 q 567 465 592 514 q 616 563 616 588 q 616 608 602 621 q 588 635 559 643 l 561 651 q 585 649 611 648 q 636 647 661 647 q 686 647 711 648 q 735 649 760 651 l 758 643 q 727 630 692 595 q 658 560 620 499 l 291 -19 z"},"\"":{"x_min":0,"x_max":331,"ha":331,"o":"m 253 422 l 238 422 l 206 645 q 206 646 206 648 q 204 659 204 664 q 204 688 215 701 q 226 714 246 714 q 266 714 276 701 q 287 688 287 665 q 287 658 287 654 q 287 649 286 645 z m 93 422 l 77 422 l 46 645 q 45 653 44 658 q 44 662 44 665 q 44 688 55 701 q 65 714 85 714 q 105 714 116 701 q 127 688 127 665 q 127 661 125 648 q 125 646 125 645 z"},"7":{"x_min":0,"x_max":648,"ha":648,"o":"m 96 479 l 87 485 q 114 537 127 565 q 140 592 148 613 l 639 613 q 628 552 519 442 q 470 393 444 364 q 365 275 327 188 q 289 100 285 0 l 164 0 q 176 80 222 157 q 269 234 359 325 q 387 353 442 400 q 547 491 572 546 l 264 546 q 198 546 162 531 q 126 516 96 479 z"},"S":{"x_min":0,"x_max":634,"ha":634,"o":"m -40 46 l 10 156 l 21 154 q 32 83 94 43 q 156 2 253 2 q 360 2 429 52 q 498 102 498 177 q 498 206 484 225 q 470 244 436 261 q 417 271 344 284 q 298 292 272 298 q 149 324 103 358 q 56 393 56 454 q 56 544 146 605 q 235 667 374 667 q 444 667 508 652 q 572 636 617 609 l 572 515 l 562 515 q 555 574 500 610 q 444 646 359 646 q 264 646 204 604 q 144 561 144 495 q 144 445 178 419 q 213 394 346 370 q 354 369 368 366 q 476 346 501 333 q 544 312 564 282 q 585 252 585 209 q 585 115 491 48 q 396 -19 256 -19 q 174 -19 101 -3 q 28 13 -40 46 z"},"}":{"x_min":0,"x_max":500,"ha":500,"o":"m 87 740 l 92 740 q 197 740 237 704 q 277 668 277 571 l 277 467 q 277 390 305 361 q 333 333 414 325 l 414 296 q 334 290 306 260 q 277 231 277 154 l 277 50 q 277 -47 237 -83 q 197 -119 92 -119 l 87 -119 l 87 -94 q 157 -93 182 -68 q 207 -42 207 34 l 207 104 q 207 214 237 255 q 267 295 347 310 q 267 325 237 365 q 207 406 207 516 l 207 586 q 207 662 182 688 q 156 714 87 715 z"},"Z":{"x_min":0,"x_max":616,"ha":616,"o":"m -28 0 l -28 9 q 261 331 364 453 q 467 575 467 593 q 467 611 451 618 q 435 625 365 625 q 268 625 197 600 q 126 574 74 521 l 65 524 l 125 648 l 630 648 l 630 639 q 400 384 277 234 q 153 83 153 59 q 153 41 174 32 q 195 23 238 23 q 348 23 428 52 q 508 81 568 143 l 577 141 l 510 0 z"},"x":{"x_min":0,"x_max":560,"ha":560,"o":"m -11 1 q -1 23 10 49 q 21 74 33 108 q 49 99 61 95 q 73 91 83 91 q 111 91 148 127 q 185 163 243 248 l 194 337 q 146 429 113 464 q 81 500 45 507 l 47 516 q 68 516 92 517 q 117 519 149 521 q 174 502 199 469 q 223 435 251 382 l 289 314 q 385 449 427 487 q 470 524 509 524 q 520 524 528 521 q 537 519 545 514 q 535 498 525 477 q 514 456 497 416 q 489 427 479 433 q 470 438 458 438 q 428 438 388 402 q 348 366 300 297 l 365 179 q 399 115 434 71 q 469 27 502 6 l 500 -3 q 482 0 468 1 q 453 2 439 2 q 429 2 418 1 q 407 0 396 -1 q 366 13 322 96 l 321 99 l 252 229 q 167 94 117 45 q 67 -4 21 -4 q 15 -4 7 -3 q -1 -1 -11 1 z"},")":{"x_min":0,"x_max":269,"ha":269,"o":"m 69 667 l 87 667 q 144 576 171 490 q 199 405 199 323 q 199 196 142 72 q 85 -53 -26 -171 l -44 -171 q 41 -56 85 88 q 130 232 130 393 q 130 465 115 533 q 100 601 69 667 z"},"&":{"x_min":0,"x_max":759,"ha":759,"o":"m 300 189 l 284 203 q 322 259 369 294 q 415 329 475 346 q 509 355 599 363 q 688 370 733 396 l 742 391 q 731 374 719 352 q 708 331 692 298 q 675 296 654 295 q 633 294 587 294 q 573 294 539 295 q 505 297 486 297 q 438 297 407 287 q 376 277 358 255 q 378 264 400 269 q 422 273 446 273 q 516 273 557 244 q 597 215 597 165 q 597 91 512 36 q 427 -19 303 -19 q 179 -19 104 28 q 30 76 30 153 q 30 215 79 264 q 129 313 219 339 q 185 363 168 390 q 152 417 152 451 q 152 520 212 568 q 273 616 365 616 q 403 616 441 606 q 478 596 517 576 l 475 495 l 465 498 q 461 544 431 570 q 400 595 348 595 q 295 595 259 561 q 223 527 223 478 q 223 436 252 406 q 282 375 329 369 l 323 345 q 231 332 181 283 q 132 234 132 158 q 132 89 185 45 q 238 2 323 2 q 414 2 469 42 q 525 83 525 148 q 525 194 496 222 q 467 249 418 249 q 386 249 359 236 q 333 222 300 189 z"},"_":{"x_min":0,"x_max":500,"ha":500,"o":"m 0 -178 l 500 -178 l 500 -236 l 0 -236 z"},"v":{"x_min":0,"x_max":616,"ha":616,"o":"m 189 525 q 157 387 142 304 q 127 221 127 178 q 127 100 164 59 q 202 17 272 17 q 371 17 438 107 q 506 197 506 332 q 506 392 488 431 q 471 471 436 490 q 461 497 488 505 q 515 513 550 525 q 551 506 552 486 q 553 467 553 449 q 553 234 466 110 q 379 -14 232 -14 q 145 -14 97 31 q 49 77 49 159 q 49 200 67 296 l 68 302 q 72 325 80 364 q 94 438 94 452 q 94 469 87 478 q 80 486 60 492 l 63 501 q 98 507 165 520 q 181 523 189 525 z"},"O":{"x_min":0,"x_max":815,"ha":815,"o":"m 448 646 q 381 646 331 624 q 282 603 240 555 q 192 500 166 419 q 139 338 139 243 q 139 124 195 63 q 251 2 361 2 q 439 2 492 28 q 545 54 591 114 q 630 167 652 240 q 674 314 674 396 q 674 522 618 584 q 562 646 448 646 z m 39 273 q 39 341 63 404 q 88 467 136 523 q 197 594 276 631 q 354 667 448 667 q 592 667 683 585 q 773 502 773 373 q 773 312 752 254 q 731 195 691 142 q 629 61 547 21 q 464 -19 358 -19 q 298 -19 247 -3 q 195 13 153 44 q 99 85 69 145 q 39 205 39 273 z"},"(":{"x_min":0,"x_max":269,"ha":269,"o":"m 172 -171 l 154 -171 q 97 -79 70 6 q 42 90 42 172 q 42 299 99 424 q 155 549 267 667 l 286 667 q 201 552 156 408 q 112 263 112 102 q 112 29 127 -38 q 142 -105 172 -171 z"},"C":{"x_min":0,"x_max":727,"ha":727,"o":"m 640 152 l 648 152 l 648 146 q 648 133 653 96 q 655 81 656 73 q 600 28 527 5 q 454 -19 371 -19 q 219 -19 128 60 q 37 140 37 270 q 37 345 66 414 q 95 483 150 540 q 214 604 293 636 q 372 667 472 667 q 552 667 617 646 q 681 625 720 586 l 720 575 q 708 551 698 530 q 688 509 681 489 l 671 491 q 662 565 606 606 q 551 646 457 646 q 394 646 342 623 q 290 599 246 551 q 194 494 167 419 q 139 344 139 258 q 139 140 202 71 q 265 2 372 2 q 455 2 520 38 q 584 74 640 152 z"},"W":{"x_min":0,"x_max":917,"ha":917,"o":"m 526 657 l 538 657 q 559 527 584 396 q 610 265 641 133 l 770 393 q 820 495 835 531 q 849 567 849 585 q 849 606 836 619 q 824 632 789 643 l 791 651 q 815 649 841 648 q 866 647 891 647 q 916 647 941 648 q 965 649 990 651 l 987 643 q 943 627 897 563 q 851 500 766 331 l 591 -19 l 580 -19 q 555 132 530 263 q 505 394 480 508 l 229 -19 l 218 -19 q 168 205 131 360 q 94 515 79 559 q 68 590 53 609 q 38 628 12 643 l 14 651 q 36 649 59 648 q 82 647 107 647 q 138 647 167 648 q 197 649 224 651 l 221 643 q 194 634 181 617 q 167 600 167 575 q 167 532 248 221 l 272 127 z"},"A":{"x_min":0,"x_max":713,"ha":713,"o":"m 377 562 l 226 342 q 234 341 248 340 q 261 340 294 340 l 387 340 q 419 340 432 340 q 444 341 453 342 z m 206 314 l 94 136 q 80 114 72 94 q 64 73 64 59 q 64 39 77 27 q 90 15 122 5 l 118 -5 q 87 -2 64 -1 q 41 0 21 0 q 2 0 -21 -1 q -44 -2 -77 -5 l -76 4 q -46 17 -15 49 q 17 81 62 147 l 422 666 l 437 666 q 444 630 457 588 q 470 546 497 471 l 624 118 q 642 67 662 43 q 682 19 714 4 l 711 -5 q 677 -2 650 -1 q 623 0 600 0 q 576 0 549 -1 q 522 -2 489 -5 l 491 4 q 517 18 527 31 q 538 44 538 63 q 538 74 536 86 q 534 98 530 108 l 464 313 q 454 314 437 315 q 420 316 398 316 l 271 316 q 256 316 240 315 q 225 315 206 314 z"},"f":{"x_min":0,"x_max":287,"ha":287,"o":"m -148 -193 q -137 -173 -127 -151 q -118 -129 -110 -106 l -100 -106 q -92 -130 -77 -144 q -63 -157 -45 -157 q 0 -157 26 -83 q 53 -10 78 195 l 112 475 l 28 475 l 35 502 l 118 502 q 140 616 203 671 q 266 727 377 729 l 377 720 q 369 707 361 690 q 353 674 342 650 q 325 668 309 677 q 292 687 278 687 q 242 687 220 643 q 199 600 189 502 l 285 502 l 278 475 l 188 475 l 153 189 q 152 184 151 174 q 126 -38 69 -105 q 32 -149 -16 -174 q -64 -198 -112 -198 q -120 -198 -128 -197 q -136 -196 -148 -193 z"},"Q":{"x_min":0,"x_max":815,"ha":815,"o":"m 158 -112 l 147 -86 q 180 -63 221 -46 q 262 -29 315 -16 q 190 -3 115 77 q 39 157 39 274 q 39 340 64 403 q 88 467 135 522 q 196 594 275 630 q 354 667 448 667 q 591 667 682 585 q 773 502 773 373 q 773 295 739 221 q 706 147 644 89 q 587 36 520 9 q 453 -18 373 -19 q 437 -42 530 -88 q 624 -134 653 -134 q 663 -134 674 -131 q 686 -128 699 -122 l 699 -136 q 656 -159 622 -175 q 587 -191 564 -198 q 522 -182 484 -163 q 446 -145 410 -123 q 401 -118 384 -107 q 311 -61 271 -61 q 241 -61 213 -74 q 185 -86 158 -112 z m 448 646 q 381 646 331 624 q 282 603 240 555 q 192 500 166 419 q 139 338 139 243 q 139 124 195 63 q 251 2 361 2 q 439 2 492 28 q 545 54 591 114 q 630 167 652 240 q 674 314 674 396 q 674 522 618 584 q 562 646 448 646 z"},"w":{"x_min":0,"x_max":977,"ha":977,"o":"m 183 525 q 153 393 137 298 q 122 204 122 150 q 122 85 152 50 q 183 15 238 15 q 319 15 378 100 q 437 185 470 350 l 503 510 l 578 525 l 533 297 q 524 255 520 221 q 516 188 516 164 q 516 94 552 55 q 588 15 650 15 q 742 15 805 106 q 868 198 868 333 q 868 392 851 431 q 834 471 802 490 q 829 498 855 506 q 881 515 910 525 q 913 498 914 481 q 915 464 915 453 q 915 237 833 111 q 751 -14 612 -14 q 533 -14 488 33 q 443 81 440 169 q 398 77 339 31 q 280 -14 203 -14 q 130 -14 90 30 q 49 73 49 152 q 49 224 71 324 q 93 424 93 450 q 93 469 86 478 q 80 486 60 492 l 62 501 q 88 505 118 511 q 148 517 183 525 z"},"-":{"x_min":0,"x_max":282,"ha":282,"o":"m 37 230 l 53 291 l 226 291 l 209 230 z"},"E":{"x_min":0,"x_max":685,"ha":685,"o":"m 181 0 l 136 0 q 80 0 46 -1 q 12 -2 -20 -4 l -17 5 q 43 30 67 185 q 70 201 71 209 l 117 502 q 122 535 124 552 q 126 570 126 583 q 126 610 117 623 q 108 636 86 643 l 88 651 q 113 649 143 649 q 173 648 232 648 l 649 648 l 667 519 l 657 518 q 621 575 549 600 q 478 626 352 626 q 325 626 292 625 q 260 624 219 621 l 176 354 q 191 353 209 353 q 227 352 265 352 l 331 352 q 429 352 478 370 q 527 388 546 429 l 556 429 l 530 247 l 521 247 q 516 292 475 311 q 435 329 327 329 l 261 329 q 239 329 217 328 q 195 328 172 326 l 153 207 q 147 172 144 141 q 141 110 141 93 q 141 53 166 38 q 190 23 290 23 l 308 23 q 429 23 508 51 q 588 80 650 143 l 660 141 l 593 0 z"},"s":{"x_min":0,"x_max":546,"ha":546,"o":"m -29 39 l 12 139 l 21 139 q 26 81 80 43 q 134 5 212 5 q 298 5 354 43 q 410 81 410 137 q 410 203 262 226 q 242 229 232 231 q 140 247 101 275 q 62 304 62 355 q 62 432 134 484 q 206 535 317 535 q 371 535 419 523 q 467 512 511 488 l 468 407 l 458 407 q 444 458 402 487 q 360 515 297 515 q 224 515 178 480 q 132 445 132 391 q 132 322 279 301 q 290 300 296 299 q 405 283 445 255 q 484 227 484 171 q 484 91 405 39 q 327 -14 205 -14 q 139 -14 80 0 q 20 13 -29 39 z"},">":{"x_min":0,"x_max":833,"ha":833,"o":"m 129 559 l 704 323 l 704 273 l 129 37 l 129 100 l 617 298 l 129 497 z"},"l":{"x_min":0,"x_max":222,"ha":222,"o":"m 126 168 q 123 145 121 121 q 119 97 119 72 q 119 42 128 27 q 138 11 160 5 l 158 -4 q 132 -2 108 -1 q 83 0 61 0 q 40 0 16 -1 q -8 -2 -33 -4 l -31 5 q 29 29 54 188 q 56 201 57 209 l 112 553 q 116 581 119 605 q 121 629 121 646 q 121 666 112 676 q 104 686 78 695 l 81 704 q 112 709 144 716 q 175 722 207 729 z"},"8":{"x_min":0,"x_max":648,"ha":648,"o":"m 257 306 q 178 292 134 251 q 90 209 90 149 q 90 84 141 44 q 192 5 277 5 q 374 5 435 48 q 497 91 497 157 q 497 208 440 244 q 384 279 257 306 z m 389 350 q 494 322 541 284 q 587 246 587 188 q 587 102 500 43 q 413 -16 282 -16 q 154 -16 81 25 q 9 67 9 140 q 9 207 60 250 q 110 293 215 316 q 157 341 129 376 q 101 410 101 457 q 101 535 173 582 q 244 630 364 630 q 464 630 526 594 q 588 559 588 502 q 588 445 538 407 q 488 370 389 350 z m 354 362 q 431 375 473 410 q 515 446 515 497 q 515 550 472 579 q 429 609 352 609 q 272 609 225 577 q 178 545 178 491 q 178 446 219 416 q 260 386 354 362 z"},"\\":{"x_min":0,"x_max":567,"ha":567,"o":"m 105 667 l 141 667 l 461 -85 l 461 -93 l 425 -93 l 105 659 z"},"e":{"x_min":0,"x_max":537,"ha":537,"o":"m 478 101 l 491 81 q 439 32 383 9 q 327 -14 257 -14 q 152 -14 86 50 q 19 114 19 214 q 19 279 54 343 q 90 407 154 459 q 200 496 256 516 q 312 535 373 535 q 440 535 479 510 q 517 485 517 443 q 517 384 439 342 q 361 299 248 299 q 220 299 190 302 q 160 305 128 311 q 120 286 116 261 q 112 237 112 212 q 112 117 159 63 q 207 10 290 10 q 338 10 386 33 q 434 56 478 101 z m 137 335 q 167 328 194 324 q 220 321 242 321 q 322 321 378 358 q 434 395 434 444 q 434 476 409 494 q 385 513 343 513 q 277 513 222 466 q 167 418 137 335 z"},"b":{"x_min":0,"x_max":648,"ha":648,"o":"m 113 66 q 137 37 173 21 q 209 5 253 5 q 360 5 435 102 q 510 198 510 342 q 510 423 472 470 q 434 517 369 517 q 263 517 191 392 q 119 267 113 66 z m 26 43 l 107 553 q 112 584 115 608 q 117 632 117 646 q 117 666 108 676 q 100 686 74 695 l 76 704 q 103 708 135 715 q 167 721 202 729 l 147 367 q 194 453 251 495 q 308 537 377 537 q 473 537 536 473 q 599 410 599 312 q 599 240 568 177 q 537 115 477 65 q 429 26 370 6 q 311 -14 242 -14 q 186 -14 133 0 q 80 14 26 43 z"},"%":{"x_min":0,"x_max":653,"ha":653,"o":"m 485 289 q 445 289 419 237 q 392 185 392 105 q 392 55 409 28 q 426 2 459 2 q 500 2 526 53 q 552 104 552 186 q 552 236 535 263 q 518 289 485 289 z m 326 125 q 326 198 375 253 q 424 307 491 307 q 548 307 584 268 q 621 229 621 169 q 621 92 573 38 q 524 -16 454 -16 q 397 -16 362 23 q 326 62 326 125 z m 183 611 q 143 611 116 559 q 90 507 90 428 q 90 377 107 351 q 124 324 156 324 q 197 324 223 376 q 250 427 250 509 q 250 559 233 585 q 216 611 183 611 z m 22 447 q 22 521 71 575 q 119 630 186 630 q 243 630 280 591 q 317 552 317 492 q 317 416 268 362 q 220 308 150 308 q 92 308 57 346 q 22 384 22 447 z m 115 -16 l 78 -16 l 527 630 l 564 630 z"},"m":{"x_min":0,"x_max":993,"ha":993,"o":"m -33 -4 l -31 5 q 29 29 53 183 q 56 200 57 209 l 79 347 q 84 378 86 402 q 89 427 89 441 q 89 460 81 470 q 72 480 46 489 l 48 498 q 68 501 98 507 q 127 513 174 524 l 152 367 q 189 450 248 492 q 306 535 381 535 q 452 535 494 492 q 536 450 536 377 l 536 368 q 573 451 631 493 q 688 535 764 535 q 836 535 877 491 q 918 447 918 369 q 918 353 915 323 q 912 293 906 251 l 900 207 q 894 163 891 126 q 887 90 887 72 q 887 42 896 27 q 905 12 925 5 l 923 -4 q 898 -2 876 -1 q 854 0 835 0 q 815 0 792 -1 q 769 -2 743 -4 l 745 5 q 778 19 795 57 q 812 94 826 209 l 834 269 q 838 303 841 329 q 843 354 843 371 q 843 434 814 469 q 785 505 735 505 q 673 505 617 448 q 561 391 534 298 q 518 241 508 181 q 499 120 499 72 q 499 42 507 27 q 516 12 536 5 l 534 -4 q 510 -2 488 -1 q 467 0 447 0 q 428 0 406 -1 q 384 -2 361 -4 l 363 5 q 395 19 412 56 q 428 92 443 209 l 450 269 q 456 311 458 334 q 460 356 460 371 q 460 433 431 468 q 403 504 354 504 q 315 504 276 479 q 236 455 202 409 q 178 377 160 335 q 143 292 137 255 l 131 207 q 125 166 122 130 q 119 94 119 72 q 119 42 128 27 q 138 11 160 5 l 158 -4 q 132 -2 108 -1 q 83 0 61 0 q 40 0 16 -1 q -8 -2 -33 -4 z"},"#":{"x_min":0,"x_max":769,"ha":769,"o":"m 342 424 l 293 284 l 434 284 l 484 424 z m 380 711 l 445 711 l 363 481 l 503 481 l 585 711 l 649 711 l 568 481 l 718 481 l 698 424 l 547 424 l 498 284 l 660 284 l 639 228 l 478 228 l 397 -1 l 332 -1 l 413 228 l 273 228 l 192 -1 l 128 -1 l 209 228 l 51 228 l 72 284 l 229 284 l 278 424 l 108 424 l 129 481 l 299 481 z"},",":{"x_min":0,"x_max":324,"ha":324,"o":"m 42 -126 l 30 -119 q 59 -91 75 -65 q 90 -39 94 -12 l 90 -12 q 62 -12 50 -2 q 37 7 37 28 q 37 50 53 66 q 70 83 91 83 q 112 83 125 68 q 138 53 138 28 q 138 -8 113 -48 q 88 -88 42 -126 z"},"n":{"x_min":0,"x_max":639,"ha":639,"o":"m -33 -4 l -31 5 q 29 29 53 183 q 56 200 57 209 l 79 347 q 84 378 86 402 q 89 427 89 441 q 89 460 81 470 q 72 480 46 489 l 48 498 q 68 501 98 507 q 127 513 174 524 l 152 367 q 193 450 256 493 q 318 535 399 535 q 477 535 521 491 q 566 446 566 369 q 566 351 562 321 q 559 290 553 251 l 547 207 q 541 165 537 128 q 533 92 533 72 q 533 42 543 27 q 552 12 575 5 l 572 -4 q 546 -2 522 -1 q 498 0 476 0 q 454 0 430 -1 q 406 -2 381 -4 l 384 5 q 420 20 438 57 q 457 95 472 209 l 480 269 l 481 277 q 491 350 491 371 q 491 435 458 470 q 425 505 364 505 q 319 505 278 481 q 238 457 202 409 q 178 377 160 335 q 143 292 137 255 l 131 207 q 125 166 122 130 q 119 94 119 72 q 119 42 128 27 q 138 11 160 5 l 158 -4 q 132 -2 108 -1 q 83 0 61 0 q 40 0 16 -1 q -8 -2 -33 -4 z"},"h":{"x_min":0,"x_max":639,"ha":639,"o":"m -33 -4 l -31 5 q 29 29 54 188 q 56 201 57 209 l 112 553 q 116 581 119 605 q 121 629 121 646 q 121 666 112 676 q 104 686 78 695 l 81 704 q 112 709 144 716 q 175 722 207 729 l 152 367 q 193 450 256 493 q 318 535 399 535 q 477 535 521 491 q 566 446 566 369 q 566 351 562 321 q 559 290 553 251 l 547 207 q 541 165 537 128 q 533 92 533 72 q 533 42 543 27 q 552 12 575 5 l 572 -4 q 546 -2 522 -1 q 498 0 476 0 q 454 0 430 -1 q 406 -2 381 -4 l 384 5 q 420 20 438 57 q 457 95 472 209 l 480 269 l 481 277 q 491 350 491 371 q 491 435 458 470 q 425 505 364 505 q 319 505 278 481 q 238 457 202 409 q 178 377 160 335 q 143 292 137 255 l 131 207 q 125 166 122 130 q 119 94 119 72 q 119 42 128 27 q 138 11 160 5 l 158 -4 q 132 -2 108 -1 q 83 0 61 0 q 40 0 16 -1 q -8 -2 -33 -4 z"},"z":{"x_min":0,"x_max":546,"ha":546,"o":"m -18 0 l -18 9 q -7 32 153 201 q 253 307 315 374 q 352 414 370 438 q 388 462 388 473 q 388 489 375 494 q 362 500 303 500 q 238 500 180 476 q 121 452 64 403 l 53 406 l 108 521 l 518 521 l 518 512 q 496 478 448 422 q 399 366 300 258 l 204 154 l 202 151 q 131 75 131 54 q 131 36 149 29 q 168 21 215 21 q 294 21 366 49 q 437 76 493 128 l 502 124 l 440 0 z"},"B":{"x_min":0,"x_max":722,"ha":722,"o":"m 265 361 l 312 361 q 383 361 418 366 q 453 372 479 385 q 520 405 543 439 q 566 474 566 514 q 566 572 519 599 q 472 626 370 626 q 348 626 314 625 q 281 624 219 621 l 176 363 q 191 362 209 361 q 227 361 265 361 z m -20 -4 l -17 5 q 43 30 67 185 q 70 201 71 209 l 117 502 q 122 535 124 552 q 126 570 126 583 q 126 610 117 623 q 108 636 86 643 l 88 651 q 125 649 160 649 q 196 648 232 648 q 268 648 319 648 q 369 649 383 649 q 528 649 596 616 q 663 583 663 512 q 663 449 610 408 q 557 367 453 350 q 564 338 619 299 q 675 260 675 194 q 675 107 585 51 q 496 -5 352 -5 q 314 -5 240 -2 q 165 0 129 0 q 96 0 58 -1 q 21 -2 -20 -4 z m 172 336 l 153 207 q 147 168 144 138 q 141 107 141 93 q 141 51 169 35 q 197 20 308 20 q 440 20 505 63 q 570 106 570 194 q 570 272 509 305 q 449 338 297 338 l 261 338 q 225 338 206 337 q 188 337 172 336 z"},"K":{"x_min":0,"x_max":662,"ha":662,"o":"m -20 -4 l -17 5 q 43 30 67 185 q 70 201 71 209 l 117 502 q 122 535 124 552 q 126 570 126 583 q 126 610 117 623 q 108 636 86 643 l 88 651 q 99 651 119 650 q 161 649 174 649 q 188 649 235 650 q 257 651 269 651 l 265 640 q 220 630 203 523 q 200 504 198 494 l 173 337 l 347 460 q 446 529 482 563 q 519 596 519 615 q 519 622 513 629 q 508 637 498 643 l 500 651 q 510 650 522 649 q 534 649 556 649 l 590 649 l 619 649 q 641 649 654 649 q 667 650 679 651 l 677 643 q 616 620 467 515 l 438 495 l 241 357 l 263 357 q 339 357 386 330 q 433 303 469 237 l 527 130 q 553 83 580 53 q 606 24 641 5 l 639 -4 q 620 -2 600 -1 q 581 0 561 0 q 543 0 526 -1 q 509 -2 492 -4 q 479 17 466 40 q 453 63 432 107 l 387 201 q 354 271 320 301 q 286 331 242 331 q 203 331 184 311 q 164 290 158 243 l 153 207 q 147 164 144 128 q 140 92 140 72 q 140 42 149 27 q 159 11 181 5 l 179 -4 q 154 -2 129 -1 q 104 0 79 0 q 54 0 30 -1 q 5 -2 -20 -4 z"},"R":{"x_min":0,"x_max":704,"ha":704,"o":"m 265 351 l 312 351 q 386 351 420 357 q 454 362 479 375 q 520 396 543 432 q 566 468 566 510 q 566 570 519 598 q 472 626 370 626 q 339 626 301 625 q 263 624 222 622 l 178 353 q 192 352 209 352 q 227 351 265 351 z m 263 327 q 227 327 208 327 q 190 326 174 325 l 156 207 q 150 170 147 139 q 144 108 144 83 q 144 53 156 33 q 169 13 193 5 l 191 -4 q 163 -2 135 -1 q 106 0 80 0 q 54 0 27 -1 q 0 -2 -29 -4 l -27 5 q 44 35 69 196 q 70 205 71 209 l 117 502 q 122 535 124 552 q 126 570 126 583 q 126 610 117 623 q 108 636 86 643 l 88 651 q 124 649 160 649 q 196 648 232 648 q 264 648 310 648 q 356 649 370 649 q 516 649 591 611 q 665 574 665 500 q 665 435 604 391 q 542 347 432 334 q 502 315 536 279 q 570 243 590 154 q 592 144 596 124 q 616 27 667 5 l 665 -4 q 633 -1 617 -1 q 601 0 587 0 q 572 0 557 -1 q 542 -1 528 -3 q 515 31 504 100 q 494 169 488 195 q 471 269 432 298 q 392 327 309 327 z"},"T":{"x_min":0,"x_max":685,"ha":685,"o":"m 359 207 q 352 158 349 126 q 346 94 346 72 q 346 57 348 46 q 350 35 355 27 q 359 20 367 14 q 375 9 387 5 l 385 -4 q 360 -2 335 -1 q 310 0 284 0 q 258 0 233 -1 q 208 -2 184 -4 l 186 5 q 246 30 270 175 q 273 197 275 209 l 327 517 q 330 536 332 554 q 334 571 334 582 q 334 606 320 617 q 305 628 273 628 q 210 628 154 604 q 98 580 39 528 l 28 530 l 84 648 l 687 648 l 702 530 l 695 524 q 659 577 607 602 q 556 627 484 627 q 443 627 426 607 q 410 588 399 508 z"},"P":{"x_min":0,"x_max":667,"ha":667,"o":"m 175 335 q 206 330 239 328 q 271 325 307 325 q 431 325 503 372 q 574 419 574 500 q 574 567 516 596 q 458 625 322 625 q 303 625 277 624 q 252 624 221 622 z m 156 207 q 150 170 147 139 q 144 107 144 83 q 144 53 156 33 q 169 13 193 5 l 191 -4 q 163 -2 135 -1 q 106 0 80 0 q 54 0 27 -1 q 0 -2 -29 -4 l -27 5 q 44 35 69 196 q 70 205 71 209 l 117 502 q 122 535 124 552 q 126 570 126 583 q 126 610 117 623 q 108 636 86 643 l 88 651 q 126 649 163 649 q 200 648 237 648 q 267 648 313 648 q 360 649 377 649 q 528 649 600 611 q 673 572 673 493 q 673 408 572 356 q 471 303 304 303 q 269 303 236 305 q 203 307 172 310 z"},"|":{"x_min":0,"x_max":500,"ha":500,"o":"m 219 764 l 281 764 l 281 -236 l 219 -236 z"},"t":{"x_min":0,"x_max":296,"ha":296,"o":"m 123 475 l 41 475 l 43 484 q 96 500 139 543 q 183 586 213 652 l 222 652 q 213 615 206 578 q 198 540 192 502 l 288 502 l 281 475 l 191 475 q 171 349 160 247 q 149 145 149 94 q 149 60 158 40 q 167 19 186 7 l 184 -2 q 163 0 153 1 q 142 2 133 2 q 127 2 120 2 q 114 1 100 0 q 82 7 74 20 q 66 33 66 57 q 66 73 69 105 q 73 137 80 186 z"},"M":{"x_min":0,"x_max":852,"ha":852,"o":"m 91 207 q 86 169 83 139 q 81 108 81 83 q 81 53 93 33 q 105 13 128 5 l 126 -4 q 94 -1 77 -1 q 59 0 44 0 q 31 0 14 -1 q -3 -1 -34 -4 l -31 5 q 39 34 63 192 q 64 203 65 209 l 111 502 q 112 506 113 514 q 122 563 122 583 q 122 610 113 623 q 104 636 81 643 l 83 651 q 112 650 147 650 q 183 649 225 648 q 262 509 305 378 q 348 247 396 124 l 726 651 q 737 650 750 650 q 763 650 789 650 q 816 650 830 650 q 843 650 855 651 l 852 640 q 805 631 788 514 q 786 501 785 494 l 740 207 q 733 167 730 132 q 727 96 727 72 q 727 42 736 27 q 746 11 768 5 l 766 -4 q 741 -2 716 -1 q 691 0 666 0 q 641 0 616 -1 q 591 -2 566 -4 l 569 5 q 630 29 654 185 q 656 201 658 209 l 716 591 l 344 -11 l 333 -8 q 287 146 240 290 q 193 435 147 570 z"},"g":{"x_min":0,"x_max":648,"ha":648,"o":"m 523 471 q 490 493 453 504 q 416 515 376 515 q 265 515 188 422 q 110 329 110 193 q 110 106 149 57 q 188 8 256 8 q 347 8 417 103 q 486 198 507 356 z m 607 491 q 579 350 561 200 q 543 51 541 43 q 510 -76 423 -136 q 336 -197 197 -197 q 142 -197 98 -190 q 54 -184 21 -171 l 26 -159 q 57 -90 62 -78 q 95 -126 136 -150 q 177 -174 228 -174 q 332 -174 396 -90 q 461 -5 477 150 q 427 67 372 28 q 316 -11 249 -11 q 151 -11 86 54 q 22 120 22 220 q 22 284 52 343 q 82 403 138 451 q 186 492 246 514 q 306 535 374 535 q 425 535 483 524 q 542 513 607 491 z"},"j":{"x_min":0,"x_max":222,"ha":222,"o":"m 77 347 q 78 354 80 367 q 87 420 87 441 q 87 460 79 470 q 70 480 44 489 l 46 498 q 77 504 108 510 q 140 517 172 524 q 159 435 141 283 q 107 -8 66 -75 q 32 -129 -24 -164 q -81 -198 -136 -198 q -144 -198 -152 -197 q -160 -196 -172 -193 q -161 -173 -151 -151 q -142 -129 -134 -106 l -125 -106 q -117 -130 -102 -144 q -87 -157 -69 -157 q -26 -157 -2 -99 q 22 -41 56 195 z m 194 653 q 194 629 180 616 q 167 603 142 603 q 124 603 112 613 q 101 623 101 639 q 101 663 115 677 q 128 690 153 690 q 171 690 183 680 q 194 669 194 653 z"},"i":{"x_min":0,"x_max":222,"ha":222,"o":"m -33 -4 l -31 5 q 29 29 53 183 q 56 200 57 209 l 79 347 q 84 378 86 402 q 89 427 89 441 q 89 460 81 470 q 72 480 46 489 l 48 498 q 68 501 98 507 q 127 513 174 524 l 131 207 q 125 165 122 129 q 119 93 119 72 q 119 42 128 27 q 138 11 160 5 l 158 -4 q 132 -2 108 -1 q 83 0 61 0 q 40 0 16 -1 q -8 -2 -33 -4 z m 196 653 q 196 629 182 616 q 169 603 144 603 q 125 603 114 613 q 103 623 103 639 q 103 663 117 677 q 130 690 155 690 q 173 690 185 680 q 196 669 196 653 z"},"y":{"x_min":0,"x_max":644,"ha":644,"o":"m 519 511 l 602 525 q 559 359 531 132 q 526 92 524 74 q 506 -56 416 -126 q 325 -197 176 -197 q 124 -197 79 -190 q 34 -184 1 -171 q 21 -129 40 -84 q 41 -80 42 -78 q 75 -127 116 -150 q 157 -174 209 -174 q 317 -174 382 -83 q 447 8 456 173 q 412 82 351 37 q 290 -8 209 -8 q 133 -8 91 35 q 49 79 49 157 q 49 225 72 324 q 94 423 94 451 q 94 470 87 478 q 81 486 60 493 l 63 502 q 111 510 138 515 q 166 520 189 525 q 156 385 140 296 q 125 206 125 154 q 125 90 156 55 q 188 21 246 21 q 330 21 392 106 q 455 192 487 352 z"},"@":{"x_min":0,"x_max":986,"ha":986,"o":"m 581 164 q 551 112 513 87 q 476 61 430 61 q 369 61 332 106 q 295 151 295 225 q 295 278 319 331 q 343 383 386 425 q 418 456 457 474 q 495 491 532 491 q 575 491 602 467 q 629 443 640 396 l 666 484 l 736 484 l 653 186 q 653 185 652 184 q 644 155 644 133 q 644 110 656 96 q 669 83 690 83 q 707 83 729 92 q 750 100 770 115 q 830 159 861 228 q 893 297 893 382 q 893 450 869 505 q 844 560 794 604 q 750 643 688 664 q 627 685 558 685 q 467 685 391 656 q 316 628 257 571 q 193 509 161 427 q 128 346 128 247 q 128 162 156 98 q 184 35 244 -16 q 300 -63 372 -88 q 443 -112 528 -112 q 607 -112 683 -86 q 758 -61 827 -11 l 842 -29 q 770 -83 689 -110 q 608 -137 522 -137 q 431 -137 355 -115 q 279 -92 221 -47 q 147 8 109 87 q 71 166 71 262 q 71 362 113 448 q 155 535 235 601 q 299 655 377 682 q 455 709 545 709 q 714 709 815 618 q 916 526 916 374 q 916 297 888 229 q 859 161 808 114 q 780 88 748 75 q 715 61 682 61 q 635 61 609 87 q 584 112 581 164 z m 536 471 q 510 471 488 456 q 466 441 443 407 q 408 354 387 293 q 366 231 366 183 q 366 138 386 111 q 406 85 439 85 q 471 85 500 107 q 530 128 557 172 q 585 218 602 271 q 618 324 618 367 q 618 413 595 442 q 572 471 536 471 z"},".":{"x_min":0,"x_max":324,"ha":324,"o":"m 76 -14 q 57 -14 46 -3 q 34 8 34 25 q 34 48 48 62 q 62 76 87 76 q 105 76 118 65 q 130 54 130 37 q 130 15 115 0 q 100 -14 76 -14 z"},"p":{"x_min":0,"x_max":662,"ha":662,"o":"m 107 59 q 144 30 179 16 q 214 3 253 3 q 367 3 445 97 q 523 192 523 330 q 523 417 483 467 q 444 516 375 516 q 283 516 214 421 q 145 326 122 164 z m 100 11 q 94 -32 90 -67 q 87 -103 87 -124 q 87 -154 96 -169 q 106 -185 128 -191 l 126 -200 q 100 -198 76 -197 q 52 -196 30 -196 q 8 -196 -16 -197 q -40 -198 -65 -200 l -62 -191 q -2 -166 22 -13 q 24 4 26 13 l 79 347 q 84 378 86 403 q 89 428 89 441 q 89 460 81 470 q 72 480 46 489 l 48 498 q 68 501 98 507 q 127 513 174 524 l 153 360 q 198 447 256 491 q 314 535 384 535 q 482 535 547 469 q 612 403 612 302 q 612 238 582 178 q 552 119 495 69 q 446 26 385 5 q 325 -17 256 -17 q 220 -17 181 -10 q 143 -3 100 11 z"},"X":{"x_min":0,"x_max":676,"ha":676,"o":"m 356 377 q 369 390 393 415 q 542 567 542 605 q 542 619 532 629 q 522 639 503 643 l 505 651 q 532 648 555 646 q 579 645 599 645 q 620 645 645 646 q 669 648 700 651 l 698 643 q 639 613 568 552 q 497 491 370 354 l 459 207 q 516 114 556 68 q 597 21 635 5 l 632 -4 q 604 -2 576 -1 q 547 0 518 0 q 487 0 456 -1 q 425 -2 394 -4 l 397 5 q 418 11 429 23 q 440 36 440 54 q 440 67 433 84 q 426 102 407 134 l 312 295 q 208 192 162 132 q 116 72 116 40 q 116 28 125 19 q 133 10 150 5 l 147 -4 q 122 -2 97 -1 q 73 0 49 0 q 23 0 -4 -1 q -31 -2 -58 -4 l -56 5 q 0 32 68 91 q 137 149 298 318 l 202 483 q 153 566 122 601 q 91 636 62 643 l 65 651 q 92 649 120 648 q 147 647 176 647 q 205 647 232 648 q 260 649 287 651 l 284 643 q 263 637 252 625 q 241 612 241 593 q 241 580 249 562 q 256 544 274 514 z"},"*":{"x_min":0,"x_max":500,"ha":500,"o":"m 273 460 l 199 333 l 144 375 l 241 483 l 100 515 l 120 579 l 253 519 l 243 667 l 302 667 l 292 519 l 425 579 l 446 515 l 304 483 l 402 375 l 346 333 z"},"Y":{"x_min":0,"x_max":638,"ha":638,"o":"m 161 -4 l 163 5 q 198 21 216 54 q 233 87 244 169 l 258 284 q 130 515 83 577 q 36 640 4 643 l 5 651 q 33 649 61 648 q 90 647 119 647 q 146 647 173 648 q 199 649 226 651 l 223 643 q 202 637 191 625 q 180 612 180 593 q 180 580 188 561 q 195 542 212 514 l 331 322 q 360 354 412 408 q 563 569 563 603 q 563 619 554 629 q 544 639 524 643 l 526 651 q 550 649 573 648 q 597 647 621 647 q 646 647 671 648 q 696 649 722 651 l 720 643 q 657 616 561 527 q 465 438 341 293 l 324 168 q 320 139 318 113 q 315 88 315 72 q 315 57 318 46 q 320 35 325 27 q 329 20 337 14 q 345 9 357 5 l 354 -4 q 333 -2 309 -1 q 286 0 262 0 q 234 0 210 -1 q 185 -2 161 -4 z"},"c":{"x_min":0,"x_max":542,"ha":542,"o":"m 481 408 l 472 408 q 454 462 421 489 q 387 516 339 516 q 294 516 255 495 q 216 474 185 433 q 150 387 131 332 q 113 276 113 215 q 113 119 159 64 q 205 10 285 10 q 336 10 386 33 q 435 56 478 101 l 491 81 q 439 32 383 9 q 327 -14 257 -14 q 151 -14 86 50 q 20 115 20 217 q 20 284 52 349 q 84 415 139 460 q 184 497 240 516 q 295 535 356 535 q 408 535 450 524 q 492 513 523 492 z"},"!":{"x_min":0,"x_max":324,"ha":324,"o":"m 85 -19 q 66 -19 55 -8 q 43 2 43 20 q 43 43 57 58 q 72 72 96 72 q 114 72 126 61 q 138 49 138 32 q 138 9 124 -5 q 109 -19 85 -19 z m 111 117 l 92 117 q 103 179 108 242 q 114 305 114 380 q 114 541 129 604 q 145 667 181 667 q 198 667 207 652 q 215 636 215 605 q 215 550 170 389 q 126 229 111 117 z"},"/":{"x_min":0,"x_max":567,"ha":567,"o":"m 0 -93 l 0 -85 l 526 667 l 567 667 l 567 659 l 40 -93 z"},"[":{"x_min":0,"x_max":269,"ha":269,"o":"m 151 -151 l 148 -172 q 88 -166 60 -136 q 32 -107 32 -50 q 32 -31 34 -9 q 37 14 41 40 l 107 457 q 127 584 162 622 q 196 660 272 667 l 269 646 q 201 641 179 500 q 177 487 176 479 l 102 10 q 98 -16 96 -36 q 94 -56 94 -72 q 94 -107 109 -128 q 124 -148 151 -151 z"},"6":{"x_min":0,"x_max":648,"ha":648,"o":"m 499 227 q 499 303 457 345 q 414 386 336 386 q 249 386 194 327 q 139 268 139 174 q 139 98 184 51 q 229 5 302 5 q 392 5 446 65 q 499 125 499 227 z m 614 573 l 576 480 l 567 481 q 555 544 512 577 q 469 609 396 609 q 283 609 214 521 q 145 434 140 283 q 167 342 222 374 q 277 406 352 406 q 458 406 527 351 q 596 295 596 212 q 596 117 514 50 q 431 -17 311 -17 q 190 -17 115 56 q 39 129 39 245 q 39 314 62 380 q 84 446 125 498 q 177 563 248 596 q 319 630 405 630 q 458 630 509 616 q 561 602 614 573 z"},"r":{"x_min":0,"x_max":343,"ha":343,"o":"m -33 -4 l -31 5 q 29 29 53 183 q 56 200 57 209 l 79 347 q 84 378 86 402 q 89 427 89 441 q 89 460 81 470 q 72 480 46 489 l 48 498 q 68 501 98 507 q 127 513 174 524 l 152 367 q 193 446 246 488 q 299 529 368 535 l 372 525 q 359 506 348 485 q 338 465 330 443 q 314 451 302 455 q 291 458 281 458 q 236 458 192 397 q 147 335 137 255 l 131 207 q 125 166 122 130 q 119 94 119 72 q 119 42 128 27 q 138 11 160 5 l 158 -4 q 132 -2 108 -1 q 83 0 61 0 q 40 0 16 -1 q -8 -2 -33 -4 z"},"2":{"x_min":0,"x_max":648,"ha":648,"o":"m 128 480 l 119 481 l 107 573 q 153 602 204 616 q 254 630 309 630 q 420 630 490 578 q 561 526 561 448 q 561 405 541 370 q 521 334 479 303 q 428 265 318 229 q 297 223 287 219 q 198 188 155 156 q 112 123 100 79 l 368 79 q 414 79 455 99 q 495 120 527 159 l 535 153 q 514 114 495 76 q 477 38 461 0 l 4 0 q 15 55 71 113 q 126 171 211 216 q 230 226 266 244 q 371 296 406 332 q 435 361 448 392 q 461 423 461 463 q 461 531 422 570 q 384 609 317 609 q 256 609 207 575 q 158 541 128 480 z"},"{":{"x_min":0,"x_max":500,"ha":500,"o":"m 413 740 l 413 715 q 344 714 318 688 q 293 662 293 586 l 293 516 q 293 406 263 365 q 233 325 153 310 q 233 295 263 255 q 293 214 293 104 l 293 34 q 293 -42 318 -68 q 343 -93 413 -94 l 413 -119 l 408 -119 q 302 -119 263 -83 q 223 -47 223 50 l 223 154 q 223 231 194 260 q 166 290 86 296 l 86 325 q 167 333 195 361 q 223 390 223 467 l 223 571 q 223 668 263 704 q 302 740 408 740 z"},"9":{"x_min":0,"x_max":648,"ha":648,"o":"m 140 387 q 140 311 183 269 q 225 228 303 228 q 390 228 445 286 q 499 345 499 439 q 499 516 454 562 q 410 609 337 609 q 247 609 193 549 q 140 489 140 387 z m 25 40 l 62 134 l 72 132 q 84 69 127 37 q 170 5 243 5 q 355 5 425 93 q 494 181 499 331 q 473 272 417 240 q 362 207 287 207 q 182 207 112 262 q 43 318 43 401 q 43 496 125 563 q 208 630 328 630 q 449 630 524 557 q 600 484 600 368 q 600 299 578 234 q 555 168 514 116 q 462 51 391 17 q 320 -16 234 -16 q 180 -16 129 -2 q 77 12 25 40 z"}," ":{"x_min":0,"x_max":324,"ha":324,"o":""},"I":{"x_min":0,"x_max":287,"ha":287,"o":"m -10 -4 l -8 5 q 52 30 76 185 q 79 201 80 209 l 126 502 q 126 506 128 514 q 136 563 136 583 q 136 610 127 623 q 118 636 95 643 l 97 651 q 106 651 124 650 q 169 649 184 649 q 200 649 250 650 q 270 651 280 651 l 277 640 q 231 631 213 514 q 211 500 210 494 l 165 207 q 158 165 155 128 q 151 92 151 72 q 151 42 161 27 q 170 12 193 5 l 191 -4 q 167 -2 141 -1 q 116 0 90 0 q 64 0 39 -1 q 14 -2 -10 -4 z"},"H":{"x_min":0,"x_max":773,"ha":773,"o":"m -20 -4 l -17 5 q 43 30 67 185 q 70 201 71 209 l 117 502 q 122 535 124 552 q 126 570 126 583 q 126 610 117 623 q 108 636 86 643 l 88 651 q 99 651 119 650 q 161 649 174 649 q 188 649 235 650 q 257 651 269 651 l 265 640 q 220 630 203 523 q 200 504 198 494 l 176 359 q 197 357 219 357 q 242 356 265 356 l 513 356 q 537 356 559 357 q 581 357 602 359 l 625 502 q 626 507 627 517 q 635 564 635 583 q 635 610 626 623 q 617 636 594 643 l 596 651 q 607 651 627 650 q 669 649 682 649 q 696 649 743 650 q 765 651 777 651 l 774 640 q 728 631 710 514 q 708 500 707 494 l 662 207 q 655 165 652 128 q 648 92 648 72 q 648 42 658 27 q 667 12 690 5 l 687 -4 q 663 -2 637 -1 q 612 0 587 0 q 562 0 538 -1 q 514 -2 489 -4 l 491 5 q 551 30 574 180 q 577 199 579 209 l 599 331 q 583 332 565 333 q 546 333 510 333 l 261 333 q 225 333 206 333 q 188 332 172 331 l 153 207 q 147 167 144 131 q 140 95 140 72 q 140 42 149 27 q 159 11 181 5 l 179 -4 q 154 -2 129 -1 q 104 0 79 0 q 54 0 30 -1 q 5 -2 -20 -4 z"},"4":{"x_min":0,"x_max":648,"ha":648,"o":"m 328 157 l -5 157 l 16 208 q 122 304 235 411 q 347 518 467 637 l 481 637 l 425 208 l 467 208 q 508 208 541 225 q 573 242 606 280 l 614 275 q 602 250 590 223 q 578 195 563 157 l 417 157 l 413 134 q 410 115 409 99 q 407 82 407 72 q 407 42 418 27 q 430 12 456 5 l 453 -4 q 422 -2 394 -1 q 366 0 342 0 q 321 0 296 -1 q 271 -2 244 -4 l 247 5 q 282 21 299 48 q 316 75 324 131 z m 334 208 l 387 530 l 73 208 z"},"~":{"x_min":0,"x_max":833,"ha":833,"o":"m 747 370 l 747 306 q 698 271 651 253 q 604 236 558 236 q 537 236 514 240 q 491 245 465 253 q 450 258 422 268 q 324 303 275 303 q 234 303 190 285 q 146 267 87 225 l 87 290 q 138 326 186 343 q 233 361 276 361 q 303 361 333 355 q 362 349 418 329 q 424 327 435 323 q 515 294 559 294 q 601 294 645 312 q 689 330 747 370 z"},"D":{"x_min":0,"x_max":778,"ha":778,"o":"m 219 621 l 153 207 q 147 170 144 139 q 141 107 141 94 q 141 51 166 36 q 191 21 308 21 q 379 21 429 36 q 479 51 515 83 q 571 134 603 217 q 635 300 635 396 q 635 521 575 573 q 515 626 369 626 q 348 626 313 625 q 279 624 219 621 z m -20 -4 l -17 5 q 43 30 67 185 q 70 201 71 209 l 117 502 q 122 535 124 552 q 126 570 126 583 q 126 610 117 623 q 108 636 86 643 l 88 651 q 124 649 160 649 q 196 648 232 648 q 270 648 322 648 q 374 649 387 649 q 557 649 646 580 q 735 512 735 382 q 735 312 706 240 q 677 169 626 116 q 566 54 489 25 q 411 -4 300 -4 q 279 -4 223 -2 q 167 0 132 0 q 96 0 58 -1 q 20 -2 -20 -4 z"},"^":{"x_min":0,"x_max":1000,"ha":1000,"o":"m 456 714 l 543 714 l 797 438 l 752 438 l 499 651 l 245 438 l 201 438 z"},"0":{"x_min":0,"x_max":648,"ha":648,"o":"m 353 609 q 298 609 255 579 q 211 548 181 490 q 152 432 135 362 q 119 291 119 222 q 119 115 162 59 q 205 4 287 4 q 390 4 455 112 q 520 221 520 395 q 520 500 478 555 q 435 609 353 609 z m 24 266 q 24 339 55 411 q 86 484 140 538 q 187 585 239 607 q 292 630 354 630 q 469 630 541 553 q 614 476 614 354 q 614 297 597 242 q 580 186 547 134 q 498 58 432 21 q 367 -16 281 -16 q 167 -16 95 62 q 24 140 24 266 z"},"F":{"x_min":0,"x_max":630,"ha":630,"o":"m -20 -4 l -17 5 q 43 30 67 185 q 70 201 71 209 l 117 502 q 122 535 124 552 q 126 570 126 583 q 126 610 117 623 q 108 636 86 643 l 88 651 q 113 649 143 649 q 173 648 232 648 l 649 648 l 667 519 l 657 518 q 621 575 549 600 q 478 626 352 626 q 325 626 292 625 q 260 624 219 621 l 176 354 q 191 353 209 353 q 227 352 265 352 l 331 352 q 429 352 478 370 q 527 388 546 429 l 556 429 l 530 247 l 521 247 q 516 292 476 311 q 435 329 327 329 l 261 329 q 239 329 217 328 q 195 328 172 326 l 153 207 q 147 167 144 132 q 140 96 140 72 q 140 42 149 27 q 159 11 181 5 l 179 -4 q 154 -2 129 -1 q 104 0 79 0 q 54 0 30 -1 q 5 -2 -20 -4 z"},"`":{"x_min":0,"x_max":500,"ha":500,"o":"m 344 589 l 317 589 l 208 697 q 206 700 201 704 q 178 726 178 739 q 178 750 185 756 q 192 763 204 763 q 221 763 244 731 l 247 727 z"},"k":{"x_min":0,"x_max":560,"ha":560,"o":"m 270 372 q 328 410 359 439 q 390 469 390 487 q 390 494 385 501 q 379 508 369 515 l 371 524 l 377 523 q 435 520 461 520 q 483 520 505 521 q 527 522 549 524 l 547 515 q 514 502 477 482 q 441 461 396 431 l 216 308 q 278 306 313 284 q 348 263 383 197 l 418 130 q 441 86 469 56 q 497 25 532 5 l 530 -4 q 514 -2 498 -2 q 481 -1 464 -1 q 447 -1 429 -2 q 411 -2 392 -4 q 377 23 353 80 q 348 89 346 94 l 310 175 q 284 235 256 262 q 229 289 193 289 q 167 289 153 271 q 139 253 133 213 l 126 168 q 123 143 121 118 q 119 93 119 72 q 119 42 128 27 q 138 11 160 5 l 158 -4 q 132 -2 108 -1 q 83 0 61 0 q 40 0 16 -1 q -8 -2 -33 -4 l -31 5 q 29 29 54 188 q 56 201 57 209 l 112 553 q 116 581 119 605 q 121 629 121 646 q 121 666 112 676 q 104 686 78 695 l 81 704 q 112 709 144 716 q 175 722 207 729 l 144 290 z"},"u":{"x_min":0,"x_max":644,"ha":644,"o":"m 456 0 q 451 21 448 42 q 446 64 446 87 q 446 101 447 121 q 449 141 452 169 q 409 77 347 31 q 286 -14 205 -14 q 127 -14 86 31 q 44 76 44 159 q 44 222 67 321 q 90 420 90 451 q 90 469 83 478 q 76 486 56 492 l 58 501 q 93 507 160 520 q 176 523 184 525 q 151 389 136 296 q 120 203 120 150 q 120 85 152 50 q 183 15 241 15 q 325 15 388 102 q 451 189 483 350 l 515 510 l 593 525 l 564 375 q 543 263 533 193 q 524 124 524 81 q 524 57 534 38 q 543 19 561 7 l 558 -2 q 547 -1 534 0 q 521 0 496 0 l 469 0 z"},"]":{"x_min":0,"x_max":269,"ha":269,"o":"m 103 646 l 106 666 q 167 659 194 630 q 222 602 222 545 q 222 526 220 504 q 217 481 213 455 l 147 38 q 127 -89 92 -127 q 58 -166 -18 -172 l -15 -151 q 53 -146 75 -5 q 77 8 78 16 l 153 485 q 156 506 158 527 q 160 548 160 567 q 160 603 146 623 q 131 643 103 646 z"},"U":{"x_min":0,"x_max":741,"ha":741,"o":"m 114 502 q 119 524 121 545 q 123 566 123 583 q 123 609 114 623 q 105 636 83 643 l 85 651 q 94 651 112 650 q 157 649 172 649 q 188 649 238 650 q 258 651 268 651 l 265 640 q 221 631 204 527 q 200 506 198 494 l 161 283 q 156 254 154 229 q 151 204 151 186 q 151 96 203 50 q 256 3 358 3 q 455 3 516 47 q 578 91 607 182 q 615 208 624 254 q 632 300 642 373 q 651 436 656 480 q 660 524 660 550 q 660 591 647 614 q 633 636 604 643 l 606 651 q 621 650 639 649 q 657 649 692 649 q 728 649 745 649 q 762 650 776 651 l 774 643 q 703 614 676 438 q 674 424 673 416 q 671 404 668 380 q 642 199 611 127 q 580 54 511 18 q 442 -19 336 -19 q 195 -19 128 29 q 61 77 61 177 q 61 203 65 235 q 68 268 76 304 z"},"o":{"x_min":0,"x_max":648,"ha":648,"o":"m 341 516 q 239 516 176 427 q 112 338 112 195 q 112 102 154 53 q 197 5 278 5 q 382 5 445 90 q 509 176 509 315 q 509 416 467 466 q 425 516 341 516 z m 23 218 q 23 271 42 323 q 62 374 100 419 q 146 476 209 505 q 271 535 343 535 q 456 535 527 469 q 599 403 599 300 q 599 251 583 204 q 566 157 534 115 q 485 50 421 18 q 356 -14 273 -14 q 164 -14 94 52 q 23 117 23 218 z"},"N":{"x_min":0,"x_max":727,"ha":727,"o":"m 147 570 l 91 207 q 86 169 83 139 q 81 108 81 83 q 81 53 93 33 q 105 13 128 5 l 126 -4 q 94 -1 77 -1 q 59 0 44 0 q 31 0 14 -1 q -3 -1 -34 -4 l -31 5 q 39 34 63 192 q 64 203 65 209 l 111 502 q 116 531 119 553 q 122 575 122 589 q 122 610 111 623 q 101 637 81 643 l 83 651 l 205 648 q 297 521 393 398 q 488 276 588 157 l 634 440 q 640 474 643 506 q 646 539 646 565 q 646 595 633 615 q 621 635 597 643 l 600 651 q 621 649 641 649 q 661 648 681 648 q 700 648 720 649 q 740 649 759 651 l 757 643 q 688 614 664 456 q 662 444 661 438 l 588 -9 l 579 -9 q 465 156 357 301 q 249 446 147 570 z"},"+":{"x_min":0,"x_max":833,"ha":833,"o":"m 388 596 l 446 596 l 446 327 l 709 327 l 709 270 l 446 270 l 446 0 l 388 0 l 388 270 l 124 270 l 124 327 l 388 327 z"},"G":{"x_min":0,"x_max":778,"ha":778,"o":"m 494 315 l 497 325 q 519 323 543 323 q 568 322 614 322 q 646 322 678 323 q 711 324 744 325 l 742 317 q 710 303 693 274 q 675 245 667 191 l 649 68 q 595 25 523 3 q 452 -19 371 -19 q 219 -19 128 60 q 37 140 37 270 q 37 345 66 414 q 95 483 150 540 q 214 604 293 636 q 372 667 472 667 q 552 667 617 646 q 681 625 720 586 l 720 575 q 708 551 698 530 q 688 509 681 489 l 671 491 q 662 565 606 606 q 551 646 457 646 q 394 646 342 623 q 290 599 246 551 q 194 494 167 419 q 139 344 139 258 q 139 139 202 71 q 264 2 373 2 q 461 2 512 37 q 563 73 573 140 l 583 208 q 583 210 584 213 q 587 233 587 243 q 587 274 568 290 q 549 305 494 315 z"},"q":{"x_min":0,"x_max":653,"ha":653,"o":"m 480 157 q 431 71 374 30 q 317 -11 249 -11 q 151 -11 86 54 q 22 120 22 220 q 22 284 52 343 q 82 403 138 451 q 186 492 246 514 q 306 535 374 535 q 424 535 480 525 q 535 514 607 491 q 569 286 547 111 q 524 -64 524 -127 q 524 -155 533 -170 q 543 -185 565 -191 l 563 -200 q 537 -198 513 -197 q 489 -196 467 -196 q 445 -196 421 -197 q 397 -198 372 -200 l 375 -191 q 441 -168 473 96 q 478 136 480 157 z m 523 471 q 490 493 453 504 q 416 515 376 515 q 265 515 188 422 q 110 329 110 193 q 110 106 149 57 q 188 8 256 8 q 347 8 417 103 q 486 198 507 356 z"},"d":{"x_min":0,"x_max":657,"ha":657,"o":"m 526 462 q 489 492 454 505 q 420 518 381 518 q 267 518 188 424 q 110 329 110 191 q 110 104 149 54 q 189 5 258 5 q 350 5 419 100 q 489 195 511 356 z m 533 509 l 540 553 q 547 595 550 615 q 552 634 552 646 q 552 666 543 677 q 534 688 510 695 l 512 704 q 548 710 579 717 q 609 723 638 729 l 568 237 q 561 186 557 147 q 553 108 553 81 q 553 57 562 38 q 571 20 589 8 l 587 -1 q 583 0 577 0 q 572 0 561 0 l 534 0 l 502 0 l 485 0 q 480 21 478 45 q 475 69 475 97 q 475 118 476 129 q 476 140 477 149 q 427 65 371 26 q 316 -14 249 -14 q 151 -14 86 52 q 22 118 22 219 q 22 283 52 343 q 82 403 138 452 q 186 494 246 515 q 307 537 376 537 q 418 537 458 530 q 497 523 533 509 z"},"1":{"x_min":0,"x_max":648,"ha":648,"o":"m 347 168 q 342 133 339 107 q 336 80 336 69 q 336 41 350 26 q 364 11 395 5 l 391 -4 q 385 -4 374 -3 q 300 0 270 0 q 243 0 175 -3 q 167 -4 163 -4 l 166 5 q 208 19 230 57 q 252 95 270 209 l 309 453 q 313 482 316 507 q 319 531 319 542 q 319 566 308 576 q 297 587 260 595 l 263 604 q 300 607 338 614 q 375 621 412 630 z"},"5":{"x_min":0,"x_max":648,"ha":648,"o":"m 5 47 l 56 146 l 65 142 q 82 79 136 42 q 191 5 270 5 q 365 5 425 58 q 485 112 485 195 q 485 259 439 298 q 393 336 315 336 q 267 336 210 324 q 153 312 92 288 l 151 613 l 506 613 q 545 613 563 617 q 582 622 594 633 l 602 628 l 562 542 l 249 542 q 194 542 176 526 q 157 509 147 454 l 124 324 q 181 340 231 349 q 282 357 324 357 q 443 357 513 309 q 584 261 584 182 q 584 93 494 38 q 404 -17 253 -17 q 175 -17 112 -1 q 49 15 5 47 z"}}}
